<mxfile host="65bd71144e">
    <diagram id="HpXqoCDVesRG2PkkKG4z" name="ページ1">
        <mxGraphModel dx="1188" dy="1001" grid="1" gridSize="10" guides="1" tooltips="1" connect="1" arrows="1" fold="1" page="1" pageScale="1" pageWidth="827" pageHeight="1169" math="0" shadow="0">
            <root>
                <mxCell id="0"/>
                <mxCell id="1" parent="0"/>
                <mxCell id="59" style="edgeStyle=elbowEdgeStyle;html=1;exitX=1.015;exitY=0.217;exitDx=0;exitDy=0;entryX=0;entryY=0.25;entryDx=0;entryDy=0;exitPerimeter=0;" edge="1" parent="1" source="4" target="40">
                    <mxGeometry relative="1" as="geometry">
                        <mxPoint x="730" y="340" as="targetPoint"/>
                        <Array as="points">
                            <mxPoint x="640" y="330"/>
                            <mxPoint x="730" y="340"/>
                            <mxPoint x="660" y="350"/>
                            <mxPoint x="640" y="340"/>
                            <mxPoint x="640" y="340"/>
                        </Array>
                    </mxGeometry>
                </mxCell>
                <mxCell id="5" value="SPI" style="edgeStyle=elbowEdgeStyle;html=1;elbow=vertical;startArrow=classic;startFill=1;exitX=1;exitY=0.25;exitDx=0;exitDy=0;" parent="1" source="2" target="4" edge="1">
                    <mxGeometry relative="1" as="geometry"/>
                </mxCell>
                <mxCell id="18" value="IRQ" style="edgeStyle=elbowEdgeStyle;elbow=vertical;html=1;exitX=1;exitY=0.75;exitDx=0;exitDy=0;startArrow=none;startFill=0;" parent="1" source="2" target="4" edge="1">
                    <mxGeometry relative="1" as="geometry"/>
                </mxCell>
                <mxCell id="2" value="IMU&lt;br&gt;LSM6DSRTR" style="rounded=1;whiteSpace=wrap;html=1;" parent="1" vertex="1">
                    <mxGeometry x="280" y="200" width="120" height="40" as="geometry"/>
                </mxCell>
                <mxCell id="6" value="QEI" style="edgeStyle=elbowEdgeStyle;elbow=vertical;html=1;startArrow=none;startFill=0;" parent="1" source="3" target="4" edge="1">
                    <mxGeometry relative="1" as="geometry"/>
                </mxCell>
                <mxCell id="10" value="EN" style="edgeStyle=elbowEdgeStyle;elbow=vertical;html=1;startArrow=none;startFill=0;" parent="1" source="4" target="7" edge="1">
                    <mxGeometry relative="1" as="geometry"/>
                </mxCell>
                <mxCell id="15" value="Ref" style="edgeStyle=elbowEdgeStyle;elbow=vertical;html=1;entryX=0.5;entryY=0;entryDx=0;entryDy=0;startArrow=none;startFill=0;" parent="1" source="4" target="7" edge="1">
                    <mxGeometry relative="1" as="geometry">
                        <Array as="points">
                            <mxPoint x="420" y="260"/>
                            <mxPoint x="450" y="250"/>
                            <mxPoint x="440" y="260"/>
                            <mxPoint x="430" y="290"/>
                            <mxPoint x="420" y="310"/>
                            <mxPoint x="420" y="300"/>
                            <mxPoint x="390" y="340"/>
                            <mxPoint x="410" y="260"/>
                            <mxPoint x="410" y="300"/>
                        </Array>
                    </mxGeometry>
                </mxCell>
                <mxCell id="17" value="I2C" style="edgeStyle=elbowEdgeStyle;elbow=vertical;html=1;startArrow=classic;startFill=1;entryX=0;entryY=0.25;entryDx=0;entryDy=0;" parent="1" source="4" target="16" edge="1">
                    <mxGeometry relative="1" as="geometry"/>
                </mxCell>
                <mxCell id="36" value="PWM/IO" style="edgeStyle=elbowEdgeStyle;html=1;elbow=vertical;" parent="1" source="4" target="35" edge="1">
                    <mxGeometry relative="1" as="geometry"/>
                </mxCell>
                <mxCell id="45" value="PWM/IO" style="edgeStyle=elbowEdgeStyle;elbow=vertical;html=1;entryX=0.5;entryY=0;entryDx=0;entryDy=0;" parent="1" source="4" target="40" edge="1">
                    <mxGeometry relative="1" as="geometry">
                        <Array as="points">
                            <mxPoint x="630" y="340"/>
                        </Array>
                    </mxGeometry>
                </mxCell>
                <mxCell id="56" value="IO" style="edgeStyle=elbowEdgeStyle;elbow=vertical;html=1;startArrow=none;startFill=0;" parent="1" source="4" target="55" edge="1">
                    <mxGeometry relative="1" as="geometry"/>
                </mxCell>
                <mxCell id="58" value="IO" style="edgeStyle=elbowEdgeStyle;elbow=vertical;html=1;startArrow=none;startFill=0;" parent="1" source="4" target="57" edge="1">
                    <mxGeometry relative="1" as="geometry"/>
                </mxCell>
                <mxCell id="61" value="IO" style="edgeStyle=elbowEdgeStyle;html=1;elbow=vertical;" edge="1" parent="1" source="4" target="60">
                    <mxGeometry relative="1" as="geometry"/>
                </mxCell>
                <mxCell id="74" style="edgeStyle=elbowEdgeStyle;html=1;exitX=0.75;exitY=0;exitDx=0;exitDy=0;startArrow=classic;startFill=1;elbow=vertical;" edge="1" parent="1" source="4" target="73">
                    <mxGeometry relative="1" as="geometry">
                        <Array as="points">
                            <mxPoint x="580" y="140"/>
                        </Array>
                    </mxGeometry>
                </mxCell>
                <mxCell id="72" value="UART" style="edgeStyle=elbowEdgeStyle;elbow=vertical;html=1;exitX=0.75;exitY=0;exitDx=0;exitDy=0;entryX=0.75;entryY=1;entryDx=0;entryDy=0;startArrow=classic;startFill=1;" edge="1" parent="1" source="4" target="70">
                    <mxGeometry relative="1" as="geometry"/>
                </mxCell>
                <mxCell id="4" value="MCU&lt;br&gt;STM32H573AII3Q" style="rounded=1;whiteSpace=wrap;html=1;" parent="1" vertex="1">
                    <mxGeometry x="480" y="160" width="120" height="600" as="geometry"/>
                </mxCell>
                <mxCell id="9" value="Analog" style="edgeStyle=elbowEdgeStyle;elbow=vertical;html=1;startArrow=none;startFill=0;" parent="1" source="8" target="4" edge="1">
                    <mxGeometry relative="1" as="geometry"/>
                </mxCell>
                <mxCell id="30" value="Analog" style="edgeStyle=elbowEdgeStyle;elbow=vertical;html=1;exitX=0;exitY=0.75;exitDx=0;exitDy=0;startArrow=none;startFill=0;" parent="1" source="16" target="4" edge="1">
                    <mxGeometry relative="1" as="geometry"/>
                </mxCell>
                <mxCell id="16" value="SEPIC DCDC&lt;br&gt;TPS55289RYQR" style="rounded=1;whiteSpace=wrap;html=1;" parent="1" vertex="1">
                    <mxGeometry x="680" y="280" width="120" height="40" as="geometry"/>
                </mxCell>
                <mxCell id="34" value="Analog" style="edgeStyle=elbowEdgeStyle;elbow=vertical;html=1;startArrow=none;startFill=0;" parent="1" source="31" target="4" edge="1">
                    <mxGeometry relative="1" as="geometry"/>
                </mxCell>
                <mxCell id="31" value="LiPo 2S" style="rounded=1;whiteSpace=wrap;html=1;" parent="1" vertex="1">
                    <mxGeometry x="680" y="200" width="120" height="40" as="geometry"/>
                </mxCell>
                <mxCell id="44" style="edgeStyle=elbowEdgeStyle;elbow=vertical;html=1;" parent="1" source="40" target="43" edge="1">
                    <mxGeometry relative="1" as="geometry"/>
                </mxCell>
                <mxCell id="49" value="Pulse" style="edgeStyle=elbowEdgeStyle;elbow=vertical;html=1;exitX=0;exitY=0.75;exitDx=0;exitDy=0;" parent="1" source="40" target="4" edge="1">
                    <mxGeometry relative="1" as="geometry"/>
                </mxCell>
                <mxCell id="50" value="Analog" style="edgeStyle=elbowEdgeStyle;elbow=vertical;html=1;exitX=0.5;exitY=1;exitDx=0;exitDy=0;" parent="1" source="40" target="4" edge="1">
                    <mxGeometry relative="1" as="geometry">
                        <Array as="points">
                            <mxPoint x="670" y="420"/>
                            <mxPoint x="660" y="500"/>
                        </Array>
                    </mxGeometry>
                </mxCell>
                <mxCell id="40" value="Motor Driver&lt;br&gt;DRV8234" style="rounded=1;whiteSpace=wrap;html=1;" parent="1" vertex="1">
                    <mxGeometry x="680" y="360" width="120" height="40" as="geometry"/>
                </mxCell>
                <mxCell id="43" value="吸引モータ&lt;br&gt;NFP-D0614-2-3.0" style="rounded=1;whiteSpace=wrap;html=1;" parent="1" vertex="1">
                    <mxGeometry x="840" y="360" width="120" height="40" as="geometry"/>
                </mxCell>
                <mxCell id="46" value="" style="group" parent="1" vertex="1" connectable="0">
                    <mxGeometry x="110" y="260" width="319" height="160" as="geometry"/>
                </mxCell>
                <mxCell id="22" value="" style="rounded=1;whiteSpace=wrap;html=1;fillColor=none;dashed=1;" parent="46" vertex="1">
                    <mxGeometry y="10" width="300" height="140" as="geometry"/>
                </mxCell>
                <mxCell id="7" value="定電流ドライバ" style="rounded=1;whiteSpace=wrap;html=1;" parent="46" vertex="1">
                    <mxGeometry x="170" y="20" width="120" height="40" as="geometry"/>
                </mxCell>
                <mxCell id="8" value="TIA" style="rounded=1;whiteSpace=wrap;html=1;" parent="46" vertex="1">
                    <mxGeometry x="170" y="100" width="120" height="40" as="geometry"/>
                </mxCell>
                <mxCell id="11" value="IR LED&lt;br&gt;VSMY14940" style="rounded=1;whiteSpace=wrap;html=1;" parent="46" vertex="1">
                    <mxGeometry x="10" y="20" width="120" height="40" as="geometry"/>
                </mxCell>
                <mxCell id="12" style="edgeStyle=elbowEdgeStyle;elbow=vertical;html=1;startArrow=none;startFill=0;" parent="46" source="7" target="11" edge="1">
                    <mxGeometry relative="1" as="geometry"/>
                </mxCell>
                <mxCell id="14" style="edgeStyle=elbowEdgeStyle;elbow=vertical;html=1;startArrow=none;startFill=0;" parent="46" source="13" target="8" edge="1">
                    <mxGeometry relative="1" as="geometry"/>
                </mxCell>
                <mxCell id="13" value="IR PD&lt;br&gt;VEMD2023" style="rounded=1;whiteSpace=wrap;html=1;" parent="46" vertex="1">
                    <mxGeometry x="10" y="100" width="120" height="40" as="geometry"/>
                </mxCell>
                <mxCell id="24" value="x4" style="rounded=0;whiteSpace=wrap;html=1;" parent="46" vertex="1">
                    <mxGeometry x="289" y="140" width="30" height="20" as="geometry"/>
                </mxCell>
                <mxCell id="53" value="SPI" style="edgeStyle=elbowEdgeStyle;elbow=vertical;html=1;startArrow=classic;startFill=1;" parent="1" source="51" target="4" edge="1">
                    <mxGeometry relative="1" as="geometry"/>
                </mxCell>
                <mxCell id="51" value="EEPROM 32Mbit&lt;br&gt;M95P32-IXCST" style="rounded=1;whiteSpace=wrap;html=1;" parent="1" vertex="1">
                    <mxGeometry x="280" y="600" width="120" height="40" as="geometry"/>
                </mxCell>
                <mxCell id="54" value="QSPI" style="edgeStyle=elbowEdgeStyle;elbow=vertical;html=1;startArrow=classic;startFill=1;" parent="1" source="52" target="4" edge="1">
                    <mxGeometry relative="1" as="geometry"/>
                </mxCell>
                <mxCell id="52" value="PSRAM 64Mbit&lt;br&gt;APS6404L-3SQR-ZR" style="rounded=1;whiteSpace=wrap;html=1;" parent="1" vertex="1">
                    <mxGeometry x="280" y="680" width="120" height="40" as="geometry"/>
                </mxCell>
                <mxCell id="55" value="表示LED(RGB)&lt;br&gt;SMLP34RGBN1W3" style="rounded=1;whiteSpace=wrap;html=1;" parent="1" vertex="1">
                    <mxGeometry x="680" y="600" width="120" height="40" as="geometry"/>
                </mxCell>
                <mxCell id="57" value="トラッキングLED&lt;br&gt;LB Q39E-L2OO-35-1" style="rounded=1;whiteSpace=wrap;html=1;" parent="1" vertex="1">
                    <mxGeometry x="680" y="520" width="120" height="40" as="geometry"/>
                </mxCell>
                <mxCell id="60" value="表示LED(Red)&lt;br&gt;VLMS1500-GS08" style="rounded=1;whiteSpace=wrap;html=1;" vertex="1" parent="1">
                    <mxGeometry x="680" y="680" width="120" height="40" as="geometry"/>
                </mxCell>
                <mxCell id="3" value="エンコーダ&lt;br&gt;NJL5820R-TE4" style="rounded=1;whiteSpace=wrap;html=1;" parent="1" vertex="1">
                    <mxGeometry x="280" y="520" width="120" height="40" as="geometry"/>
                </mxCell>
                <mxCell id="26" value="x2" style="rounded=0;whiteSpace=wrap;html=1;" parent="1" vertex="1">
                    <mxGeometry x="399" y="560" width="30" height="20" as="geometry"/>
                </mxCell>
                <mxCell id="62" value="x2" style="rounded=0;whiteSpace=wrap;html=1;" vertex="1" parent="1">
                    <mxGeometry x="800" y="560" width="30" height="20" as="geometry"/>
                </mxCell>
                <mxCell id="64" value="x4" style="rounded=0;whiteSpace=wrap;html=1;" vertex="1" parent="1">
                    <mxGeometry x="800" y="720" width="30" height="20" as="geometry"/>
                </mxCell>
                <mxCell id="66" value="Analog" style="edgeStyle=elbowEdgeStyle;elbow=vertical;html=1;" edge="1" parent="1" source="65" target="4">
                    <mxGeometry relative="1" as="geometry"/>
                </mxCell>
                <mxCell id="65" value="NTCサーミスタ&lt;br&gt;NCP03XH103J05RL" style="rounded=1;whiteSpace=wrap;html=1;" vertex="1" parent="1">
                    <mxGeometry x="280" y="440" width="120" height="40" as="geometry"/>
                </mxCell>
                <mxCell id="69" value="" style="group" vertex="1" connectable="0" parent="1">
                    <mxGeometry x="670" y="430" width="300" height="60" as="geometry"/>
                </mxCell>
                <mxCell id="68" value="" style="rounded=1;whiteSpace=wrap;html=1;fillColor=none;dashed=1;" vertex="1" parent="69">
                    <mxGeometry width="300" height="60" as="geometry"/>
                </mxCell>
                <mxCell id="35" value="Motor Driver&lt;br&gt;MP6519" style="rounded=1;whiteSpace=wrap;html=1;" parent="69" vertex="1">
                    <mxGeometry x="10" y="10" width="120" height="40" as="geometry"/>
                </mxCell>
                <mxCell id="37" value="走行モータ&lt;br&gt;NFP-D0614-2-3.0" style="rounded=1;whiteSpace=wrap;html=1;" parent="69" vertex="1">
                    <mxGeometry x="170" y="10" width="120" height="40" as="geometry"/>
                </mxCell>
                <mxCell id="38" style="edgeStyle=elbowEdgeStyle;elbow=vertical;html=1;" parent="69" source="35" target="37" edge="1">
                    <mxGeometry relative="1" as="geometry"/>
                </mxCell>
                <mxCell id="67" value="x2" style="rounded=0;whiteSpace=wrap;html=1;" vertex="1" parent="1">
                    <mxGeometry x="960" y="480" width="30" height="20" as="geometry"/>
                </mxCell>
                <mxCell id="71" value="SWD" style="edgeStyle=elbowEdgeStyle;elbow=vertical;html=1;exitX=0.25;exitY=1;exitDx=0;exitDy=0;entryX=0.25;entryY=0;entryDx=0;entryDy=0;startArrow=classic;startFill=1;" edge="1" parent="1" source="70" target="4">
                    <mxGeometry relative="1" as="geometry"/>
                </mxCell>
                <mxCell id="70" value="外部コネクタ" style="rounded=1;whiteSpace=wrap;html=1;" vertex="1" parent="1">
                    <mxGeometry x="480" y="80" width="120" height="40" as="geometry"/>
                </mxCell>
                <mxCell id="73" value="IR トランシーバー" style="rounded=1;whiteSpace=wrap;html=1;" vertex="1" parent="1">
                    <mxGeometry x="680" y="120" width="120" height="40" as="geometry"/>
                </mxCell>
            </root>
        </mxGraphModel>
    </diagram>
</mxfile>